<?xml version="1.0" encoding="utf-8"?>
<!-- Generator: Adobe Illustrator 24.0.1, SVG Export Plug-In . SVG Version: 6.00 Build 0)  -->
<svg version="1.1" id="Layer_1" xmlns="http://www.w3.org/2000/svg" xmlns:xlink="http://www.w3.org/1999/xlink" x="0px" y="0px"
	 viewBox="0 0 299.98 100" style="enable-background:new 0 0 299.98 100;" xml:space="preserve">
<style type="text/css">
	.st0{fill:#FED700;}
	.st1{fill:#F5F7FA;}
</style>
<path class="st0" d="M18.46,23.75v29.43c0,0,17.99,1.5,22.42,10.63V32.68L18.46,23.75z"/>
<path class="st1" d="M16.36,55.4c9.88,0.24,18.09,3.71,24.55,11.08c6.46-7.42,14.71-10.82,24.33-11.1c0-3.77,0-7.36,0-11.33
	c-1.44,1.07-2.98,1.74-3.7,2.91c-0.67,1.09-0.47,2.73-0.68,4.27c-7.61,0.84-14.47,3.55-20,9.24c-5.58-5.87-12.53-8.38-20.13-9.29
	c0-8.33,0-16.44,0-24.8c7.7,1.36,14.46,4.3,20.17,9.64c5.72-5.35,12.45-8.27,20.1-9.63c0.07,1.28,0.12,2.21,0.19,3.3
	c1.53-0.7,2.82-1.28,4.04-1.84c0-2.25,0-4.42,0-6.72c-9.04,1-17.29,3.63-24.35,9.31c-7.17-5.74-15.39-8.35-24.54-9.32
	c0,2.8,0,5.36,0,8.1c-3.31,0-6.41,0-9.54,0c0,11.7,0,23.22,0,34.9c13.82-0.68,25.67,3.07,34.13,14.76
	c5.94-8.45,14.17-13.21,24.29-14.9c0-1.36,0-2.64,0-4.04c-9.65,1.3-17.83,5.13-24.32,12.35c-8.08-8.86-18.26-12.48-29.89-12.74
	c0-9.05,0-17.96,0-26.95c1.82,0,3.52,0,5.35,0C16.36,40.21,16.36,47.69,16.36,55.4z M93.85,50.16c4.33,0,8.47,0,12.66,0
	c0-2.51,0-4.84,0-7.42c-4.28,0-8.46,0-12.6,0c0-1.26,0-2.27,0-3.52c4.88,0,9.64,0,14.38,0c0-2.65,0-5.04,0-7.49
	c-8.19,0-16.26,0-24.42,0c0,10.04,0,19.99,0,30c8.41,0,16.75,0,25.07,0c0-2.57,0-4.97,0-7.61c-5.08,0-10.07,0-15.08,0
	C93.85,52.74,93.85,51.6,93.85,50.16z M143.15,38.28c0,4.07,0,7.98,0,11.89c0,0.98-0.03,1.97,0.07,2.94
	c0.65,6.25,5.17,10.02,11.11,9.07c1.87-0.3,3.63-1.21,5.42-1.83c0.06,0.33,0.16,0.87,0.26,1.39c3.09,0,6.06,0,9,0
	c0-7.91,0-15.66,0-23.4c-3.26,0-6.39,0-9.61,0c0,3.55,0.03,6.95-0.02,10.34c-0.02,1.08-0.11,2.21-0.43,3.23
	c-0.46,1.46-1.59,2.27-3.17,2.17c-1.62-0.1-2.54-1.06-2.67-2.65c-0.13-1.66-0.18-3.33-0.2-5c-0.03-2.69-0.01-5.38-0.01-8.15
	C149.59,38.28,146.49,38.28,143.15,38.28z M200.88,35.86c-2.02-2.44-4.88-3.81-8.98-4.43c-11.18-1.69-20.25,7.73-17.93,18.63
	c2.7,12.66,17.78,14.91,26.08,8.82c0.33-0.24,0.66-0.72,0.67-1.09c0.05-3.62,0.03-7.24,0.03-10.91c-1.09,0-1.98,0-3.04,0
	c0,2.93-0.08,5.75,0.03,8.56c0.05,1.25-0.38,2.1-1.49,2.37c-2.44,0.59-4.93,1.44-7.39,1.42c-6.36-0.05-11.5-5.02-12.07-11.19
	c-0.6-6.5,3.47-12.23,9.84-13.53c4.51-0.92,8.75-0.17,12.26,3.1C199.63,36.96,200.26,36.4,200.88,35.86z M272.72,61.77
	c0-4.81,0.18-9.48-0.04-14.13c-0.3-6.22-4.85-9.6-11.02-8.61c-2.65,0.43-4.83,1.63-6.79,3.82c-0.08-1.42-0.15-2.49-0.21-3.62
	c-0.97,0-1.8,0-2.68,0c0,7.57,0,15.03,0,22.52c1.02,0,1.91,0,2.77,0c0.07-0.24,0.13-0.35,0.13-0.45c0.01-3.35-0.02-6.69,0.04-10.04
	c0.03-1.43,0.06-2.9,0.4-4.28c0.86-3.48,4.22-5.57,8.15-5.27c3.92,0.3,5.85,2.22,6.21,6.3c0.13,1.49,0.08,3,0.09,4.5
	c0.01,3.05,0,6.1,0,9.26C270.78,61.77,271.62,61.77,272.72,61.77z M281.72,41.73c0,4.83-0.03,9.38,0.01,13.92
	c0.02,2.59,0.9,4.85,3.48,5.85c2.72,1.06,5.4,0.87,7.96-1.01c-0.37-0.7-0.71-1.33-1.07-2.01c-0.43,0.21-0.68,0.35-0.93,0.46
	c-3.83,1.63-6.4-0.06-6.41-4.22c-0.01-3.17,0-6.34,0-9.51c0-1.13,0-2.25,0-3.54c2.45,0,4.62,0,6.87,0c0-0.89,0-1.61,0-2.56
	c-2.3,0-4.52,0-6.9,0c0-1.77,0-3.3,0-4.91c-1.06,0-1.95,0-3.07,0c0,1.66,0,3.23,0,4.83c-1.47,0.08-2.7,0.15-3.9,0.22
	c0,0.92,0,1.62,0,2.48C279.12,41.73,280.31,41.73,281.72,41.73z M212.25,61.77c0-3.79-0.02-7.47,0.01-11.15
	c0.04-5.79,2.16-8.11,7.9-8.76c0.1-0.01,0.2-0.1,0.38-0.2c0-0.84,0-1.72,0-2.98c-1.68,0.42-3.27,0.57-4.61,1.23
	c-1.36,0.67-2.47,1.83-3.85,2.9c0-1.25,0-2.38,0-3.59c-0.99,0-1.83,0-2.77,0c0,7.55,0,15,0,22.55
	C210.32,61.77,211.21,61.77,212.25,61.77z M65.25,33.99c-3.86,1.02-5.05,3.17-3.84,6.96C65.26,39.31,65.72,38.47,65.25,33.99z
	 M129.08,29.93v9.5c-6.42-2.73-11.82-1.7-15.07,2.74c-3.41,4.66-3.14,12.18,0.58,16.44c3.54,4.04,9.34,4.76,14.86,1.8
	c0.12,0.47,0.23,0.93,0.32,1.32h9.01v-31.8H129.08z M124.52,54.55c-2.18-0.5-3.31-2.59-2.96-5.49c0.27-2.28,1.89-3.75,4.03-3.67
	c2.23,0.09,3.66,1.86,3.67,4.57C129.28,53.2,127.23,55.18,124.52,54.55z M243.36,46.57c-0.1-2.78-1.3-5.13-3.91-6.52
	c-3.97-2.13-10.96-1.15-14.43,2.08c0.4,0.63,0.81,1.29,1.29,2.05c2.5-1.87,5.22-2.68,8.2-2.54c4.28,0.2,6.45,2.99,5.64,7.37
	c-0.82,0-1.68-0.02-2.53,0.01c-2.49,0.07-4.98,0.04-7.45,0.3c-3.4,0.36-5.56,2.52-5.77,5.43c-0.26,3.47,1.49,6.05,4.97,6.9
	c4,0.98,7.8,0.66,10.95-2.87c0.08,1.16,0.15,2.04,0.23,3.01h2.88v-1.72C243.42,55.57,243.52,51.07,243.36,46.57z M237.92,58.23
	c-2.6,1.75-5.38,1.89-8.23,0.78c-1.72-0.68-2.48-2.15-2.34-4.01c0.14-1.74,1.08-3.07,2.99-3.28c3.24-0.36,6.52-0.38,9.84-0.55
	C240.75,54.23,240.37,56.59,237.92,58.23z"/>
<path class="st1" d="M16.36,55.4c0-7.71,0-15.19,0-22.79c-1.83,0-3.53,0-5.35,0c0,8.99,0,17.9,0,26.95
	c11.63,0.26,21.8,3.88,29.89,12.74c6.5-7.22,14.67-11.05,24.32-12.35c0,1.4,0,2.67,0,4.04c-10.12,1.69-18.34,6.45-24.29,14.9
	C32.47,67.19,20.62,63.44,6.8,64.12c0-11.69,0-23.2,0-34.9c3.14,0,6.23,0,9.54,0c0-2.74,0-5.3,0-8.1
	c9.15,0.97,17.37,3.58,24.54,9.32c7.06-5.67,15.3-8.31,24.35-9.31c0,2.31,0,4.47,0,6.72C64,28.41,62.72,29,61.19,29.69
	c-0.06-1.09-0.11-2.02-0.19-3.3c-7.65,1.36-14.38,4.27-20.1,9.63c-5.72-5.33-12.47-8.28-20.17-9.64c0,8.36,0,16.47,0,24.8
	c7.6,0.9,14.55,3.42,20.13,9.29c5.54-5.69,12.39-8.4,20-9.24c0.2-1.55,0-3.18,0.68-4.27c0.72-1.17,2.27-1.83,3.7-2.91
	c0,3.97,0,7.56,0,11.33c-9.62,0.28-17.87,3.68-24.33,11.1C34.45,59.11,26.24,55.64,16.36,55.4z"/>
<path class="st1" d="M93.85,50.16c0,1.44,0,2.58,0,3.95c5.01,0,10,0,15.08,0c0,2.64,0,5.04,0,7.61c-8.32,0-16.66,0-25.07,0
	c0-10,0-19.95,0-30c8.16,0,16.23,0,24.42,0c0,2.45,0,4.85,0,7.49c-4.74,0-9.5,0-14.38,0c0,1.25,0,2.26,0,3.52c4.14,0,8.32,0,12.6,0
	c0,2.58,0,4.92,0,7.42C102.31,50.16,98.17,50.16,93.85,50.16z"/>
<path class="st1" d="M129.08,29.93v9.5c-6.42-2.73-11.82-1.7-15.07,2.74c-3.41,4.66-3.14,12.18,0.58,16.44
	c3.54,4.04,9.34,4.76,14.86,1.8c0.12,0.47,0.23,0.93,0.32,1.32h9.01v-31.8H129.08z M124.52,54.55c-2.18-0.5-3.31-2.59-2.96-5.49
	c0.27-2.28,1.89-3.75,4.03-3.67c2.23,0.09,3.66,1.86,3.67,4.57C129.28,53.2,127.23,55.18,124.52,54.55z"/>
<path class="st1" d="M143.15,38.28c3.34,0,6.44,0,9.77,0c0,2.77-0.02,5.46,0.01,8.15c0.02,1.67,0.07,3.34,0.2,5
	c0.13,1.59,1.05,2.55,2.67,2.65c1.58,0.1,2.71-0.72,3.17-2.17c0.32-1.02,0.41-2.15,0.43-3.23c0.05-3.4,0.02-6.8,0.02-10.34
	c3.22,0,6.35,0,9.61,0c0,7.74,0,15.49,0,23.4c-2.95,0-5.91,0-9,0c-0.1-0.52-0.2-1.06-0.26-1.39c-1.79,0.62-3.56,1.53-5.42,1.83
	c-5.94,0.95-10.46-2.82-11.11-9.07c-0.1-0.97-0.07-1.96-0.07-2.94C143.15,46.27,143.15,42.36,143.15,38.28z"/>
<path class="st1" d="M200.88,35.86c-0.61,0.54-1.24,1.1-1.98,1.75c-3.52-3.27-7.75-4.01-12.26-3.1c-6.37,1.29-10.45,7.03-9.84,13.53
	c0.57,6.17,5.71,11.14,12.07,11.19c2.46,0.02,4.95-0.83,7.39-1.42c1.11-0.27,1.54-1.12,1.49-2.37c-0.11-2.81-0.03-5.63-0.03-8.56
	c1.06,0,1.95,0,3.04,0c0,3.67,0.02,7.29-0.03,10.91c-0.01,0.37-0.34,0.86-0.67,1.09c-8.3,6.08-23.38,3.84-26.08-8.82
	c-2.32-10.9,6.75-20.32,17.93-18.63C196,32.05,198.86,33.42,200.88,35.86z"/>
<path class="st1" d="M243.36,46.57c-0.1-2.78-1.3-5.13-3.91-6.52c-3.97-2.13-10.96-1.15-14.43,2.08c0.4,0.63,0.81,1.29,1.29,2.05
	c2.5-1.87,5.22-2.68,8.2-2.54c4.28,0.2,6.45,2.99,5.64,7.37c-0.82,0-1.68-0.02-2.53,0.01c-2.49,0.07-4.98,0.04-7.45,0.3
	c-3.4,0.36-5.56,2.52-5.77,5.43c-0.26,3.47,1.49,6.05,4.97,6.9c4,0.98,7.8,0.66,10.95-2.87c0.08,1.16,0.15,2.04,0.23,3.01h2.88
	v-1.72C243.42,55.57,243.52,51.07,243.36,46.57z M237.92,58.23c-2.6,1.75-5.38,1.89-8.23,0.78c-1.72-0.68-2.48-2.15-2.34-4.01
	c0.14-1.74,1.08-3.07,2.99-3.28c3.24-0.36,6.52-0.38,9.84-0.55C240.75,54.23,240.37,56.59,237.92,58.23z"/>
<path class="st1" d="M272.72,61.77c-1.1,0-1.94,0-2.97,0c0-3.16,0.01-6.21,0-9.26c-0.01-1.5,0.04-3.01-0.09-4.5
	c-0.36-4.07-2.29-5.99-6.21-6.3c-3.93-0.31-7.29,1.79-8.15,5.27c-0.34,1.38-0.38,2.85-0.4,4.28c-0.06,3.34-0.03,6.69-0.04,10.04
	c0,0.11-0.06,0.22-0.13,0.45c-0.86,0-1.75,0-2.77,0c0-7.5,0-14.95,0-22.52c0.88,0,1.72,0,2.68,0c0.07,1.12,0.13,2.19,0.21,3.62
	c1.96-2.19,4.14-3.39,6.79-3.82c6.17-0.99,10.72,2.39,11.02,8.61C272.9,52.3,272.72,56.97,272.72,61.77z"/>
<path class="st1" d="M281.72,41.73c-1.41,0-2.61,0-3.95,0c0-0.86,0-1.57,0-2.48c1.19-0.07,2.43-0.14,3.9-0.22c0-1.61,0-3.18,0-4.83
	c1.13,0,2.02,0,3.07,0c0,1.61,0,3.15,0,4.91c2.38,0,4.6,0,6.9,0c0,0.95,0,1.67,0,2.56c-2.25,0-4.42,0-6.87,0c0,1.29,0,2.42,0,3.54
	c0,3.17-0.01,6.34,0,9.51c0.01,4.16,2.58,5.85,6.41,4.22c0.26-0.11,0.5-0.25,0.93-0.46c0.36,0.68,0.69,1.31,1.07,2.01
	c-2.56,1.88-5.24,2.07-7.96,1.01c-2.58-1.01-3.46-3.26-3.48-5.85C281.69,51.1,281.72,46.56,281.72,41.73z"/>
<path class="st1" d="M212.25,61.77c-1.04,0-1.93,0-2.93,0c0-7.55,0-15,0-22.55c0.94,0,1.78,0,2.77,0c0,1.21,0,2.34,0,3.59
	c1.37-1.06,2.49-2.23,3.85-2.9c1.34-0.66,2.93-0.81,4.61-1.23c0,1.26,0,2.14,0,2.98c-0.18,0.1-0.28,0.19-0.38,0.2
	c-5.74,0.65-7.86,2.97-7.9,8.76C212.23,54.3,212.25,57.98,212.25,61.77z"/>
<path class="st1" d="M65.25,33.99c0.47,4.47,0.01,5.31-3.84,6.96C60.2,37.17,61.39,35.01,65.25,33.99z"/>
<rect x="94" y="-35.52" class="st1" width="24.23" height="24.23"/>
</svg>
